<mxfile host="Electron" modified="2023-11-14T17:24:05.010Z" agent="Mozilla/5.0 (Windows NT 10.0; Win64; x64) AppleWebKit/537.36 (KHTML, like Gecko) draw.io/22.0.3 Chrome/114.0.5735.289 Electron/25.8.4 Safari/537.36" etag="7XzkeZXTU328awM6OnUs" version="22.0.3" type="device">
  <diagram name="Page-1" id="ITrEii3NF-POrtXsS3dV">
    <mxGraphModel dx="1036" dy="606" grid="1" gridSize="10" guides="1" tooltips="1" connect="1" arrows="1" fold="1" page="1" pageScale="1" pageWidth="850" pageHeight="1100" math="0" shadow="0">
      <root>
        <mxCell id="0" />
        <mxCell id="1" parent="0" />
        <mxCell id="94PVYyoo7nt3uNiNC6zY-3" value="" style="edgeStyle=orthogonalEdgeStyle;rounded=0;orthogonalLoop=1;jettySize=auto;html=1;" edge="1" parent="1" source="94PVYyoo7nt3uNiNC6zY-1" target="94PVYyoo7nt3uNiNC6zY-2">
          <mxGeometry relative="1" as="geometry" />
        </mxCell>
        <mxCell id="94PVYyoo7nt3uNiNC6zY-1" value="start" style="ellipse;whiteSpace=wrap;html=1;" vertex="1" parent="1">
          <mxGeometry x="340" y="10" width="120" height="80" as="geometry" />
        </mxCell>
        <mxCell id="94PVYyoo7nt3uNiNC6zY-4" style="edgeStyle=orthogonalEdgeStyle;rounded=0;orthogonalLoop=1;jettySize=auto;html=1;" edge="1" parent="1" source="94PVYyoo7nt3uNiNC6zY-2">
          <mxGeometry relative="1" as="geometry">
            <mxPoint x="400" y="360" as="targetPoint" />
          </mxGeometry>
        </mxCell>
        <mxCell id="94PVYyoo7nt3uNiNC6zY-19" style="edgeStyle=orthogonalEdgeStyle;rounded=0;orthogonalLoop=1;jettySize=auto;html=1;entryX=0.5;entryY=0;entryDx=0;entryDy=0;" edge="1" parent="1" source="94PVYyoo7nt3uNiNC6zY-2" target="94PVYyoo7nt3uNiNC6zY-8">
          <mxGeometry relative="1" as="geometry">
            <mxPoint x="730" y="190" as="targetPoint" />
            <Array as="points">
              <mxPoint x="585" y="190" />
              <mxPoint x="585" y="191" />
              <mxPoint x="590" y="191" />
              <mxPoint x="590" y="470" />
              <mxPoint x="400" y="470" />
            </Array>
          </mxGeometry>
        </mxCell>
        <mxCell id="94PVYyoo7nt3uNiNC6zY-2" value="n&amp;lt;=3" style="rhombus;whiteSpace=wrap;html=1;" vertex="1" parent="1">
          <mxGeometry x="360" y="150" width="80" height="80" as="geometry" />
        </mxCell>
        <mxCell id="94PVYyoo7nt3uNiNC6zY-5" value="true" style="text;html=1;strokeColor=none;fillColor=none;align=center;verticalAlign=middle;whiteSpace=wrap;rounded=0;" vertex="1" parent="1">
          <mxGeometry x="350" y="270" width="60" height="30" as="geometry" />
        </mxCell>
        <mxCell id="94PVYyoo7nt3uNiNC6zY-15" style="edgeStyle=orthogonalEdgeStyle;rounded=0;orthogonalLoop=1;jettySize=auto;html=1;entryX=0;entryY=0.5;entryDx=0;entryDy=0;" edge="1" parent="1" source="94PVYyoo7nt3uNiNC6zY-6" target="94PVYyoo7nt3uNiNC6zY-2">
          <mxGeometry relative="1" as="geometry">
            <Array as="points">
              <mxPoint x="210" y="390" />
              <mxPoint x="210" y="190" />
            </Array>
          </mxGeometry>
        </mxCell>
        <mxCell id="94PVYyoo7nt3uNiNC6zY-6" value="temp = n%10&lt;br&gt;sum += temp*temp*temp&lt;br&gt;n = n/10" style="rounded=0;whiteSpace=wrap;html=1;" vertex="1" parent="1">
          <mxGeometry x="300" y="360" width="210" height="60" as="geometry" />
        </mxCell>
        <mxCell id="94PVYyoo7nt3uNiNC6zY-10" style="edgeStyle=orthogonalEdgeStyle;rounded=0;orthogonalLoop=1;jettySize=auto;html=1;entryX=0.5;entryY=0;entryDx=0;entryDy=0;" edge="1" parent="1" source="94PVYyoo7nt3uNiNC6zY-8" target="94PVYyoo7nt3uNiNC6zY-9">
          <mxGeometry relative="1" as="geometry" />
        </mxCell>
        <mxCell id="94PVYyoo7nt3uNiNC6zY-12" style="edgeStyle=orthogonalEdgeStyle;rounded=0;orthogonalLoop=1;jettySize=auto;html=1;" edge="1" parent="1" source="94PVYyoo7nt3uNiNC6zY-8" target="94PVYyoo7nt3uNiNC6zY-11">
          <mxGeometry relative="1" as="geometry" />
        </mxCell>
        <mxCell id="94PVYyoo7nt3uNiNC6zY-8" value="i == sum" style="rhombus;whiteSpace=wrap;html=1;" vertex="1" parent="1">
          <mxGeometry x="360" y="550" width="80" height="80" as="geometry" />
        </mxCell>
        <mxCell id="94PVYyoo7nt3uNiNC6zY-18" style="edgeStyle=orthogonalEdgeStyle;rounded=0;orthogonalLoop=1;jettySize=auto;html=1;entryX=1;entryY=0.5;entryDx=0;entryDy=0;" edge="1" parent="1" source="94PVYyoo7nt3uNiNC6zY-9" target="94PVYyoo7nt3uNiNC6zY-16">
          <mxGeometry relative="1" as="geometry">
            <Array as="points">
              <mxPoint x="570" y="940" />
            </Array>
          </mxGeometry>
        </mxCell>
        <mxCell id="94PVYyoo7nt3uNiNC6zY-9" value="la so hoan hao" style="shape=parallelogram;perimeter=parallelogramPerimeter;whiteSpace=wrap;html=1;fixedSize=1;" vertex="1" parent="1">
          <mxGeometry x="500" y="660" width="120" height="60" as="geometry" />
        </mxCell>
        <mxCell id="94PVYyoo7nt3uNiNC6zY-17" style="edgeStyle=orthogonalEdgeStyle;rounded=0;orthogonalLoop=1;jettySize=auto;html=1;entryX=0;entryY=0.5;entryDx=0;entryDy=0;" edge="1" parent="1" source="94PVYyoo7nt3uNiNC6zY-11" target="94PVYyoo7nt3uNiNC6zY-16">
          <mxGeometry relative="1" as="geometry">
            <Array as="points">
              <mxPoint x="240" y="940" />
            </Array>
          </mxGeometry>
        </mxCell>
        <mxCell id="94PVYyoo7nt3uNiNC6zY-11" value="khong phai so hoan hao" style="shape=parallelogram;perimeter=parallelogramPerimeter;whiteSpace=wrap;html=1;fixedSize=1;" vertex="1" parent="1">
          <mxGeometry x="180" y="680" width="120" height="60" as="geometry" />
        </mxCell>
        <mxCell id="94PVYyoo7nt3uNiNC6zY-13" value="false" style="text;html=1;strokeColor=none;fillColor=none;align=center;verticalAlign=middle;whiteSpace=wrap;rounded=0;" vertex="1" parent="1">
          <mxGeometry x="250" y="560" width="60" height="30" as="geometry" />
        </mxCell>
        <mxCell id="94PVYyoo7nt3uNiNC6zY-14" value="true" style="text;html=1;strokeColor=none;fillColor=none;align=center;verticalAlign=middle;whiteSpace=wrap;rounded=0;" vertex="1" parent="1">
          <mxGeometry x="480" y="550" width="60" height="30" as="geometry" />
        </mxCell>
        <mxCell id="94PVYyoo7nt3uNiNC6zY-16" value="" style="ellipse;whiteSpace=wrap;html=1;" vertex="1" parent="1">
          <mxGeometry x="345" y="900" width="120" height="80" as="geometry" />
        </mxCell>
        <mxCell id="94PVYyoo7nt3uNiNC6zY-20" value="false" style="text;html=1;strokeColor=none;fillColor=none;align=center;verticalAlign=middle;whiteSpace=wrap;rounded=0;" vertex="1" parent="1">
          <mxGeometry x="590" y="270" width="60" height="30" as="geometry" />
        </mxCell>
      </root>
    </mxGraphModel>
  </diagram>
</mxfile>
